# xmcd CD database file
#
# Track frame offsets:
#	150
#	20544
#	36844
#	50451
#	68676
#	82799
#	100011
#	113728
#	129678
#	141751
#	154457
#	167151
#	186543
#	201670
#
# Disc length: 2880 seconds
#
# Revision: 0
# Processed by: cddbd v1.4PL0 Copyright (c) Steve Scherf et al.
# Submitted via: CDex 1.50
#
DISCID=c60b3e0e
DTITLE=Tyler, Karen - Lovin' the Blues Too Long
DYEAR=1997
DGENRE=Blues
TTITLE0=Don't "Sugar" Me
TTITLE1=Lovin' the Blues Too Long
TTITLE2=Rich In Love
TTITLE3=Hello Moonlight
TTITLE4=Comfort Me
TTITLE5=Two Hearts
TTITLE6=Songbird Blues
TTITLE7=Stars In Heaven
TTITLE8=I Got a Man
TTITLE9=House of Cards
TTITLE10=Too Much Love
TTITLE11=Leave Me Lonely
TTITLE12=Ain't No Thing
TTITLE13=Stand Up Sister
EXTD=YEAR: 1997
EXTT0=
EXTT1=
EXTT2=
EXTT3=
EXTT4=
EXTT5=
EXTT6=
EXTT7=
EXTT8=
EXTT9=
EXTT10=
EXTT11=
EXTT12=
EXTT13=
PLAYORDER=
